<svg width="216" height="29" viewBox="0 0 216 29" fill="none" xmlns="http://www.w3.org/2000/svg">
<g filter="url(#filter0_i_1_20)">
<mask id="mask0_1_20" style="mask-type:alpha" maskUnits="userSpaceOnUse" x="0" y="0" width="126" height="29">
<path d="M35.056 13.788L38.548 13.716C39.412 13.716 39.844 13.776 39.844 13.896C39.844 14.208 38.092 14.484 34.588 14.724C32.356 19.092 31.24 22.068 31.24 23.652C31.24 24.756 31.588 25.308 32.284 25.308C32.548 25.308 32.878 25.146 33.274 24.822C33.67 24.498 33.91 24.336 33.994 24.336C34.078 24.336 34.12 24.396 34.12 24.516C34 24.948 33.634 25.308 33.022 25.596C32.41 25.884 31.894 26.028 31.474 26.028C31.054 26.028 30.724 26.004 30.484 25.956C29.908 25.74 29.62 25.044 29.62 23.868C29.62 21.444 30.544 18.36 32.392 14.616L28.072 14.724C24.856 17.868 21.628 20.628 18.388 23.004C13.54 26.532 9.74801 28.296 7.01201 28.296C6.84401 28.296 6.67601 28.284 6.50801 28.26C2.81201 27.948 0.964005 26.052 0.964005 22.572C0.964005 20.508 1.61201 18.324 2.90801 16.02C4.63601 12.948 7.00001 10.326 10 8.154C13 5.982 15.688 4.896 18.064 4.896C20.44 4.896 21.628 5.772 21.628 7.524C21.628 8.7 21.268 10.008 20.548 11.448C19.828 12.888 19.096 13.8 18.352 14.184C18.28 14.208 18.202 14.22 18.118 14.22C18.034 14.22 17.992 14.196 17.992 14.148L19.18 12.204C19.996 10.932 20.404 9.816 20.404 8.856C20.404 7.896 20.194 7.122 19.774 6.534C19.354 5.946 18.688 5.652 17.776 5.652C15.904 5.652 13.666 6.696 11.062 8.784C8.45801 10.872 6.47801 13.44 5.12201 16.488C3.76601 19.536 3.08801 21.912 3.08801 23.616C3.08801 26.184 4.39601 27.468 7.01201 27.468C9.50801 27.468 12.892 25.86 17.164 22.644C19.06 21.228 22.144 18.552 26.416 14.616C25.576 14.664 24.796 14.748 24.076 14.868C22.54 15.156 21.82 15.108 21.916 14.724C22.012 13.836 22.468 13.392 23.284 13.392C24.868 13.584 26.2 13.68 27.28 13.68C29.344 11.784 32.428 8.676 36.532 4.356C39.292 1.452 40.972 0 41.572 0C41.836 0 41.968 0.204 41.968 0.612C41.968 1.02 41.86 1.656 41.644 2.52C41.428 3.384 41.188 3.912 40.924 4.104C40.372 4.488 39.856 5.01 39.376 5.67C38.896 6.33 38.212 7.566 37.324 9.378C36.436 11.19 35.68 12.66 35.056 13.788ZM37.936 5.004L28.72 13.644H30.844C31.348 13.668 31.972 13.68 32.716 13.68C33.412 12.312 35.152 9.42 37.936 5.004ZM45.1061 12.708C45.7541 12.708 46.0781 12.96 46.0781 13.464C46.0781 13.608 46.0421 13.752 45.9701 13.896C43.8101 16.896 42.5141 19.164 42.0821 20.7C47.6741 15.108 51.0701 12.312 52.2701 12.312C52.3901 12.288 52.4981 12.276 52.5941 12.276C53.2661 12.276 53.6021 12.576 53.6021 13.176C53.6021 13.296 53.5781 13.416 53.5301 13.536C53.4821 13.656 53.0021 14.304 52.0901 15.48C51.0341 16.728 50.1401 17.928 49.4081 19.08C48.6761 20.232 48.3101 21.192 48.3101 21.96C48.3101 22.728 48.4781 23.112 48.8141 23.112C49.8701 23.112 51.7061 21.66 54.3221 18.756C54.3701 18.708 54.4541 18.6 54.5741 18.432C54.9341 18 55.1501 17.784 55.2221 17.784C55.2941 17.784 55.3301 17.904 55.3301 18.144C55.3301 18.384 55.1621 18.696 54.8261 19.08C51.8501 22.464 49.7381 24.156 48.4901 24.156C47.3141 24.156 46.7261 23.508 46.7261 22.212C46.7261 20.916 47.2061 19.428 48.1661 17.748L50.4701 14.004C48.8381 15.204 47.3861 16.518 46.1141 17.946C44.8421 19.374 43.6841 20.76 42.6401 22.104C41.5961 23.448 40.9901 24.12 40.8221 24.12C40.4621 24.12 40.1801 23.97 39.9761 23.67C39.7721 23.37 39.6701 22.998 39.6701 22.554C39.6701 22.11 39.8261 21.516 40.1381 20.772C40.4501 20.028 40.8461 19.128 41.3261 18.072L39.1661 20.34C38.6381 20.868 38.3081 21.132 38.1761 21.132C38.0441 21.132 37.9781 21.054 37.9781 20.898C37.9781 20.742 38.0741 20.568 38.2661 20.376C39.1541 19.488 39.9221 18.636 40.5701 17.82C41.1941 17.004 42.4781 15.444 44.4221 13.14C44.6381 12.852 44.8661 12.708 45.1061 12.708ZM64.2462 9.738C64.5702 9.966 64.7322 10.236 64.7322 10.548C64.7322 10.86 64.5822 11.13 64.2822 11.358C63.9822 11.586 63.6522 11.7 63.2922 11.7C62.9322 11.7 62.6022 11.568 62.3022 11.304C62.0022 11.04 61.8522 10.74 61.8522 10.404C61.8522 9.732 62.3082 9.396 63.2202 9.396C63.5802 9.396 63.9222 9.51 64.2462 9.738ZM56.7042 24.48C55.4802 24.48 54.8682 23.688 54.8682 22.104C54.8682 20.808 55.5762 19.014 56.9922 16.722C58.4082 14.43 59.5482 13.272 60.4122 13.248C60.6522 13.248 60.9222 13.344 61.2222 13.536C61.5222 13.728 61.6722 13.92 61.6722 14.112C61.5522 14.28 61.4082 14.466 61.2402 14.67C61.0722 14.874 60.8922 15.096 60.7002 15.336C60.5082 15.576 60.2442 15.918 59.9082 16.362C59.5722 16.806 59.2482 17.232 58.9362 17.64C57.1362 19.968 56.2362 21.57 56.2362 22.446C56.2362 23.322 56.5362 23.76 57.1362 23.76C57.6402 23.76 58.3242 23.484 59.1882 22.932C61.2042 21.684 62.8002 20.316 63.9762 18.828C64.4082 18.276 64.7022 18 64.8582 18C65.0142 18 65.0922 18.096 65.0922 18.288C65.0922 18.48 64.8162 18.864 64.2642 19.44C63.7122 20.016 63.2742 20.472 62.9502 20.808C62.6262 21.144 62.4042 21.366 62.2842 21.474C62.1642 21.582 61.9422 21.786 61.6182 22.086C61.2942 22.386 61.0482 22.596 60.8802 22.716C60.7122 22.836 60.4722 23.016 60.1602 23.256C59.8482 23.496 59.5722 23.67 59.3322 23.778C59.0922 23.886 58.8162 24.012 58.5042 24.156C58.0002 24.372 57.4002 24.48 56.7042 24.48ZM66.9704 24.552C66.7064 24.552 66.4664 24.516 66.2504 24.444C64.7144 24.012 63.9464 23.148 63.9464 21.852C63.9464 20.172 65.0024 18.228 67.1144 16.02C69.2264 13.812 71.1224 12.708 72.8024 12.708C73.3544 12.708 73.8044 12.858 74.1524 13.158C74.5004 13.458 74.6744 13.824 74.6744 14.256C74.6744 15.6 73.6604 16.884 71.6324 18.108C69.6044 19.332 67.9544 19.944 66.6824 19.944C66.4904 19.944 66.3224 19.92 66.1784 19.872C65.8184 20.52 65.6384 21.204 65.6384 21.924C65.6384 23.172 66.2324 23.796 67.4204 23.796C68.6084 23.796 70.1504 22.992 72.0464 21.384C73.5104 20.208 74.7584 18.96 75.7904 17.64C76.0064 17.352 76.1924 17.208 76.3484 17.208C76.5044 17.208 76.5824 17.28 76.5824 17.424C76.5824 17.568 76.4864 17.772 76.2944 18.036C74.9984 19.74 73.4384 21.252 71.6144 22.572C69.7904 23.892 68.2424 24.552 66.9704 24.552ZM73.7744 14.184C73.7744 13.896 73.4684 13.752 72.8564 13.752C72.2444 13.752 71.3744 14.22 70.2464 15.156C68.7344 16.404 67.5584 17.712 66.7184 19.08C66.8624 19.128 67.0184 19.152 67.1864 19.152C68.0984 19.152 69.3164 18.666 70.8404 17.694C72.3644 16.722 73.3184 15.66 73.7024 14.508C73.7504 14.388 73.7744 14.28 73.7744 14.184ZM84.1845 15.12C84.1845 13.488 84.6885 12.672 85.6965 12.672C85.7925 12.672 85.9005 12.684 86.0205 12.708C86.4285 12.78 86.6325 13.092 86.6325 13.644C86.6325 14.196 86.5365 14.892 86.3445 15.732C86.1525 16.356 86.0205 16.824 85.9485 17.136C86.0205 17.544 86.2185 18.066 86.5425 18.702C86.8665 19.338 87.3105 19.656 87.8745 19.656C88.4385 19.656 89.0685 19.272 89.7645 18.504C89.9085 18.336 90.0465 18.252 90.1785 18.252C90.3105 18.252 90.3825 18.33 90.3945 18.486C90.4065 18.642 90.3165 18.852 90.1245 19.116C89.3805 20.004 88.6005 20.448 87.7845 20.448C86.6085 20.448 85.6605 19.584 84.9405 17.856C84.1965 19.56 83.1405 21.03 81.7725 22.266C80.4045 23.502 79.0485 24.12 77.7045 24.12C76.4325 24.12 75.7965 23.16 75.7965 21.24C75.7965 19.728 77.2065 16.944 80.0265 12.888C82.8465 8.832 85.0005 6.804 86.4885 6.804C86.8005 6.804 87.0825 6.9 87.3345 7.092C87.5865 7.284 87.7125 7.512 87.7125 7.776C87.7125 7.752 87.5385 7.932 87.1905 8.316C86.8425 8.7 85.8945 9.732 84.3465 11.412C82.7985 13.092 81.2805 14.94 79.7925 16.956C78.3045 18.972 77.5605 20.532 77.5605 21.636C77.5605 21.924 77.6385 22.236 77.7945 22.572C77.9505 22.908 78.2085 23.076 78.5685 23.076C79.6245 23.076 80.8605 22.26 82.2765 20.628C83.4525 19.188 84.1725 17.976 84.4365 16.992C84.2685 16.488 84.1845 15.864 84.1845 15.12ZM99.5446 9.738C99.8686 9.966 100.031 10.236 100.031 10.548C100.031 10.86 99.8806 11.13 99.5806 11.358C99.2806 11.586 98.9506 11.7 98.5906 11.7C98.2306 11.7 97.9006 11.568 97.6006 11.304C97.3006 11.04 97.1506 10.74 97.1506 10.404C97.1506 9.732 97.6066 9.396 98.5186 9.396C98.8786 9.396 99.2206 9.51 99.5446 9.738ZM92.0026 24.48C90.7786 24.48 90.1666 23.688 90.1666 22.104C90.1666 20.808 90.8746 19.014 92.2906 16.722C93.7066 14.43 94.8466 13.272 95.7106 13.248C95.9506 13.248 96.2206 13.344 96.5206 13.536C96.8206 13.728 96.9706 13.92 96.9706 14.112C96.8506 14.28 96.7066 14.466 96.5386 14.67C96.3706 14.874 96.1906 15.096 95.9986 15.336C95.8066 15.576 95.5426 15.918 95.2066 16.362C94.8706 16.806 94.5466 17.232 94.2346 17.64C92.4346 19.968 91.5346 21.57 91.5346 22.446C91.5346 23.322 91.8346 23.76 92.4346 23.76C92.9386 23.76 93.6226 23.484 94.4866 22.932C96.5026 21.684 98.0986 20.316 99.2746 18.828C99.7066 18.276 100.001 18 100.157 18C100.313 18 100.391 18.096 100.391 18.288C100.391 18.48 100.115 18.864 99.5626 19.44C99.0106 20.016 98.5726 20.472 98.2486 20.808C97.9246 21.144 97.7026 21.366 97.5826 21.474C97.4626 21.582 97.2406 21.786 96.9166 22.086C96.5926 22.386 96.3466 22.596 96.1786 22.716C96.0106 22.836 95.7706 23.016 95.4586 23.256C95.1466 23.496 94.8706 23.67 94.6306 23.778C94.3906 23.886 94.1146 24.012 93.8026 24.156C93.2986 24.372 92.6986 24.48 92.0026 24.48ZM102.269 24.552C102.005 24.552 101.765 24.516 101.549 24.444C100.013 24.012 99.2447 23.148 99.2447 21.852C99.2447 20.172 100.301 18.228 102.413 16.02C104.525 13.812 106.421 12.708 108.101 12.708C108.653 12.708 109.103 12.858 109.451 13.158C109.799 13.458 109.973 13.824 109.973 14.256C109.973 15.6 108.959 16.884 106.931 18.108C104.903 19.332 103.253 19.944 101.981 19.944C101.789 19.944 101.621 19.92 101.477 19.872C101.117 20.52 100.937 21.204 100.937 21.924C100.937 23.172 101.531 23.796 102.719 23.796C103.907 23.796 105.449 22.992 107.345 21.384C108.809 20.208 110.057 18.96 111.089 17.64C111.305 17.352 111.491 17.208 111.647 17.208C111.803 17.208 111.881 17.28 111.881 17.424C111.881 17.568 111.785 17.772 111.593 18.036C110.297 19.74 108.737 21.252 106.913 22.572C105.089 23.892 103.541 24.552 102.269 24.552ZM109.073 14.184C109.073 13.896 108.767 13.752 108.155 13.752C107.543 13.752 106.673 14.22 105.545 15.156C104.033 16.404 102.857 17.712 102.017 19.08C102.161 19.128 102.317 19.152 102.485 19.152C103.397 19.152 104.615 18.666 106.139 17.694C107.663 16.722 108.617 15.66 109.001 14.508C109.049 14.388 109.073 14.28 109.073 14.184ZM120.671 12.492L125.855 12.42C125.927 12.468 125.963 12.504 125.963 12.528C125.963 12.744 124.469 13.044 121.481 13.428C118.493 13.812 116.879 14.04 116.639 14.112C116.183 14.52 115.343 15.738 114.119 17.766C112.895 19.794 112.283 21.276 112.283 22.212C112.283 23.1 112.895 23.544 114.119 23.544C114.695 23.544 115.451 23.364 116.387 23.004C117.323 22.644 118.043 22.308 118.547 21.996C119.891 21.156 121.331 19.92 122.867 18.288C123.203 17.952 123.431 17.784 123.551 17.784C123.623 17.784 123.659 17.856 123.659 18C123.659 18.144 123.479 18.432 123.119 18.864C121.871 20.4 120.467 21.636 118.907 22.572C117.035 23.724 115.247 24.3 113.543 24.3C112.799 24.3 112.193 24.138 111.725 23.814C111.257 23.49 111.023 22.836 111.023 21.852C111.023 20.868 111.455 19.518 112.319 17.802C113.183 16.086 113.843 14.808 114.299 13.968C113.963 14.04 113.675 14.076 113.435 14.076C112.739 14.076 112.391 13.8 112.391 13.248C112.391 12.84 112.679 12.552 113.255 12.384C113.327 12.384 113.435 12.372 113.579 12.348H115.667C116.099 11.796 116.591 11.16 117.143 10.44C117.815 9.576 118.271 9.144 118.511 9.144C118.751 9.144 119.051 9.24 119.411 9.432C119.771 9.624 119.951 9.852 119.951 10.116C119.951 10.38 119.375 11.16 118.223 12.456C118.847 12.48 119.663 12.492 120.671 12.492Z" fill="white"/>
</mask>
<g mask="url(#mask0_1_20)">
<path d="M35.056 13.788L38.548 13.716C39.412 13.716 39.844 13.776 39.844 13.896C39.844 14.208 38.092 14.484 34.588 14.724C32.356 19.092 31.24 22.068 31.24 23.652C31.24 24.756 31.588 25.308 32.284 25.308C32.548 25.308 32.878 25.146 33.274 24.822C33.67 24.498 33.91 24.336 33.994 24.336C34.078 24.336 34.12 24.396 34.12 24.516C34 24.948 33.634 25.308 33.022 25.596C32.41 25.884 31.894 26.028 31.474 26.028C31.054 26.028 30.724 26.004 30.484 25.956C29.908 25.74 29.62 25.044 29.62 23.868C29.62 21.444 30.544 18.36 32.392 14.616L28.072 14.724C24.856 17.868 21.628 20.628 18.388 23.004C13.54 26.532 9.74801 28.296 7.01201 28.296C6.84401 28.296 6.67601 28.284 6.50801 28.26C2.81201 27.948 0.964005 26.052 0.964005 22.572C0.964005 20.508 1.61201 18.324 2.90801 16.02C4.63601 12.948 7.00001 10.326 10 8.154C13 5.982 15.688 4.896 18.064 4.896C20.44 4.896 21.628 5.772 21.628 7.524C21.628 8.7 21.268 10.008 20.548 11.448C19.828 12.888 19.096 13.8 18.352 14.184C18.28 14.208 18.202 14.22 18.118 14.22C18.034 14.22 17.992 14.196 17.992 14.148L19.18 12.204C19.996 10.932 20.404 9.816 20.404 8.856C20.404 7.896 20.194 7.122 19.774 6.534C19.354 5.946 18.688 5.652 17.776 5.652C15.904 5.652 13.666 6.696 11.062 8.784C8.45801 10.872 6.47801 13.44 5.12201 16.488C3.76601 19.536 3.08801 21.912 3.08801 23.616C3.08801 26.184 4.39601 27.468 7.01201 27.468C9.50801 27.468 12.892 25.86 17.164 22.644C19.06 21.228 22.144 18.552 26.416 14.616C25.576 14.664 24.796 14.748 24.076 14.868C22.54 15.156 21.82 15.108 21.916 14.724C22.012 13.836 22.468 13.392 23.284 13.392C24.868 13.584 26.2 13.68 27.28 13.68C29.344 11.784 32.428 8.676 36.532 4.356C39.292 1.452 40.972 0 41.572 0C41.836 0 41.968 0.204 41.968 0.612C41.968 1.02 41.86 1.656 41.644 2.52C41.428 3.384 41.188 3.912 40.924 4.104C40.372 4.488 39.856 5.01 39.376 5.67C38.896 6.33 38.212 7.566 37.324 9.378C36.436 11.19 35.68 12.66 35.056 13.788ZM37.936 5.004L28.72 13.644H30.844C31.348 13.668 31.972 13.68 32.716 13.68C33.412 12.312 35.152 9.42 37.936 5.004ZM45.1061 12.708C45.7541 12.708 46.0781 12.96 46.0781 13.464C46.0781 13.608 46.0421 13.752 45.9701 13.896C43.8101 16.896 42.5141 19.164 42.0821 20.7C47.6741 15.108 51.0701 12.312 52.2701 12.312C52.3901 12.288 52.4981 12.276 52.5941 12.276C53.2661 12.276 53.6021 12.576 53.6021 13.176C53.6021 13.296 53.5781 13.416 53.5301 13.536C53.4821 13.656 53.0021 14.304 52.0901 15.48C51.0341 16.728 50.1401 17.928 49.4081 19.08C48.6761 20.232 48.3101 21.192 48.3101 21.96C48.3101 22.728 48.4781 23.112 48.8141 23.112C49.8701 23.112 51.7061 21.66 54.3221 18.756C54.3701 18.708 54.4541 18.6 54.5741 18.432C54.9341 18 55.1501 17.784 55.2221 17.784C55.2941 17.784 55.3301 17.904 55.3301 18.144C55.3301 18.384 55.1621 18.696 54.8261 19.08C51.8501 22.464 49.7381 24.156 48.4901 24.156C47.3141 24.156 46.7261 23.508 46.7261 22.212C46.7261 20.916 47.2061 19.428 48.1661 17.748L50.4701 14.004C48.8381 15.204 47.3861 16.518 46.1141 17.946C44.8421 19.374 43.6841 20.76 42.6401 22.104C41.5961 23.448 40.9901 24.12 40.8221 24.12C40.4621 24.12 40.1801 23.97 39.9761 23.67C39.7721 23.37 39.6701 22.998 39.6701 22.554C39.6701 22.11 39.8261 21.516 40.1381 20.772C40.4501 20.028 40.8461 19.128 41.3261 18.072L39.1661 20.34C38.6381 20.868 38.3081 21.132 38.1761 21.132C38.0441 21.132 37.9781 21.054 37.9781 20.898C37.9781 20.742 38.0741 20.568 38.2661 20.376C39.1541 19.488 39.9221 18.636 40.5701 17.82C41.1941 17.004 42.4781 15.444 44.4221 13.14C44.6381 12.852 44.8661 12.708 45.1061 12.708ZM64.2462 9.738C64.5702 9.966 64.7322 10.236 64.7322 10.548C64.7322 10.86 64.5822 11.13 64.2822 11.358C63.9822 11.586 63.6522 11.7 63.2922 11.7C62.9322 11.7 62.6022 11.568 62.3022 11.304C62.0022 11.04 61.8522 10.74 61.8522 10.404C61.8522 9.732 62.3082 9.396 63.2202 9.396C63.5802 9.396 63.9222 9.51 64.2462 9.738ZM56.7042 24.48C55.4802 24.48 54.8682 23.688 54.8682 22.104C54.8682 20.808 55.5762 19.014 56.9922 16.722C58.4082 14.43 59.5482 13.272 60.4122 13.248C60.6522 13.248 60.9222 13.344 61.2222 13.536C61.5222 13.728 61.6722 13.92 61.6722 14.112C61.5522 14.28 61.4082 14.466 61.2402 14.67C61.0722 14.874 60.8922 15.096 60.7002 15.336C60.5082 15.576 60.2442 15.918 59.9082 16.362C59.5722 16.806 59.2482 17.232 58.9362 17.64C57.1362 19.968 56.2362 21.57 56.2362 22.446C56.2362 23.322 56.5362 23.76 57.1362 23.76C57.6402 23.76 58.3242 23.484 59.1882 22.932C61.2042 21.684 62.8002 20.316 63.9762 18.828C64.4082 18.276 64.7022 18 64.8582 18C65.0142 18 65.0922 18.096 65.0922 18.288C65.0922 18.48 64.8162 18.864 64.2642 19.44C63.7122 20.016 63.2742 20.472 62.9502 20.808C62.6262 21.144 62.4042 21.366 62.2842 21.474C62.1642 21.582 61.9422 21.786 61.6182 22.086C61.2942 22.386 61.0482 22.596 60.8802 22.716C60.7122 22.836 60.4722 23.016 60.1602 23.256C59.8482 23.496 59.5722 23.67 59.3322 23.778C59.0922 23.886 58.8162 24.012 58.5042 24.156C58.0002 24.372 57.4002 24.48 56.7042 24.48ZM66.9704 24.552C66.7064 24.552 66.4664 24.516 66.2504 24.444C64.7144 24.012 63.9464 23.148 63.9464 21.852C63.9464 20.172 65.0024 18.228 67.1144 16.02C69.2264 13.812 71.1224 12.708 72.8024 12.708C73.3544 12.708 73.8044 12.858 74.1524 13.158C74.5004 13.458 74.6744 13.824 74.6744 14.256C74.6744 15.6 73.6604 16.884 71.6324 18.108C69.6044 19.332 67.9544 19.944 66.6824 19.944C66.4904 19.944 66.3224 19.92 66.1784 19.872C65.8184 20.52 65.6384 21.204 65.6384 21.924C65.6384 23.172 66.2324 23.796 67.4204 23.796C68.6084 23.796 70.1504 22.992 72.0464 21.384C73.5104 20.208 74.7584 18.96 75.7904 17.64C76.0064 17.352 76.1924 17.208 76.3484 17.208C76.5044 17.208 76.5824 17.28 76.5824 17.424C76.5824 17.568 76.4864 17.772 76.2944 18.036C74.9984 19.74 73.4384 21.252 71.6144 22.572C69.7904 23.892 68.2424 24.552 66.9704 24.552ZM73.7744 14.184C73.7744 13.896 73.4684 13.752 72.8564 13.752C72.2444 13.752 71.3744 14.22 70.2464 15.156C68.7344 16.404 67.5584 17.712 66.7184 19.08C66.8624 19.128 67.0184 19.152 67.1864 19.152C68.0984 19.152 69.3164 18.666 70.8404 17.694C72.3644 16.722 73.3184 15.66 73.7024 14.508C73.7504 14.388 73.7744 14.28 73.7744 14.184ZM84.1845 15.12C84.1845 13.488 84.6885 12.672 85.6965 12.672C85.7925 12.672 85.9005 12.684 86.0205 12.708C86.4285 12.78 86.6325 13.092 86.6325 13.644C86.6325 14.196 86.5365 14.892 86.3445 15.732C86.1525 16.356 86.0205 16.824 85.9485 17.136C86.0205 17.544 86.2185 18.066 86.5425 18.702C86.8665 19.338 87.3105 19.656 87.8745 19.656C88.4385 19.656 89.0685 19.272 89.7645 18.504C89.9085 18.336 90.0465 18.252 90.1785 18.252C90.3105 18.252 90.3825 18.33 90.3945 18.486C90.4065 18.642 90.3165 18.852 90.1245 19.116C89.3805 20.004 88.6005 20.448 87.7845 20.448C86.6085 20.448 85.6605 19.584 84.9405 17.856C84.1965 19.56 83.1405 21.03 81.7725 22.266C80.4045 23.502 79.0485 24.12 77.7045 24.12C76.4325 24.12 75.7965 23.16 75.7965 21.24C75.7965 19.728 77.2065 16.944 80.0265 12.888C82.8465 8.832 85.0005 6.804 86.4885 6.804C86.8005 6.804 87.0825 6.9 87.3345 7.092C87.5865 7.284 87.7125 7.512 87.7125 7.776C87.7125 7.752 87.5385 7.932 87.1905 8.316C86.8425 8.7 85.8945 9.732 84.3465 11.412C82.7985 13.092 81.2805 14.94 79.7925 16.956C78.3045 18.972 77.5605 20.532 77.5605 21.636C77.5605 21.924 77.6385 22.236 77.7945 22.572C77.9505 22.908 78.2085 23.076 78.5685 23.076C79.6245 23.076 80.8605 22.26 82.2765 20.628C83.4525 19.188 84.1725 17.976 84.4365 16.992C84.2685 16.488 84.1845 15.864 84.1845 15.12ZM99.5446 9.738C99.8686 9.966 100.031 10.236 100.031 10.548C100.031 10.86 99.8806 11.13 99.5806 11.358C99.2806 11.586 98.9506 11.7 98.5906 11.7C98.2306 11.7 97.9006 11.568 97.6006 11.304C97.3006 11.04 97.1506 10.74 97.1506 10.404C97.1506 9.732 97.6066 9.396 98.5186 9.396C98.8786 9.396 99.2206 9.51 99.5446 9.738ZM92.0026 24.48C90.7786 24.48 90.1666 23.688 90.1666 22.104C90.1666 20.808 90.8746 19.014 92.2906 16.722C93.7066 14.43 94.8466 13.272 95.7106 13.248C95.9506 13.248 96.2206 13.344 96.5206 13.536C96.8206 13.728 96.9706 13.92 96.9706 14.112C96.8506 14.28 96.7066 14.466 96.5386 14.67C96.3706 14.874 96.1906 15.096 95.9986 15.336C95.8066 15.576 95.5426 15.918 95.2066 16.362C94.8706 16.806 94.5466 17.232 94.2346 17.64C92.4346 19.968 91.5346 21.57 91.5346 22.446C91.5346 23.322 91.8346 23.76 92.4346 23.76C92.9386 23.76 93.6226 23.484 94.4866 22.932C96.5026 21.684 98.0986 20.316 99.2746 18.828C99.7066 18.276 100.001 18 100.157 18C100.313 18 100.391 18.096 100.391 18.288C100.391 18.48 100.115 18.864 99.5626 19.44C99.0106 20.016 98.5726 20.472 98.2486 20.808C97.9246 21.144 97.7026 21.366 97.5826 21.474C97.4626 21.582 97.2406 21.786 96.9166 22.086C96.5926 22.386 96.3466 22.596 96.1786 22.716C96.0106 22.836 95.7706 23.016 95.4586 23.256C95.1466 23.496 94.8706 23.67 94.6306 23.778C94.3906 23.886 94.1146 24.012 93.8026 24.156C93.2986 24.372 92.6986 24.48 92.0026 24.48ZM102.269 24.552C102.005 24.552 101.765 24.516 101.549 24.444C100.013 24.012 99.2447 23.148 99.2447 21.852C99.2447 20.172 100.301 18.228 102.413 16.02C104.525 13.812 106.421 12.708 108.101 12.708C108.653 12.708 109.103 12.858 109.451 13.158C109.799 13.458 109.973 13.824 109.973 14.256C109.973 15.6 108.959 16.884 106.931 18.108C104.903 19.332 103.253 19.944 101.981 19.944C101.789 19.944 101.621 19.92 101.477 19.872C101.117 20.52 100.937 21.204 100.937 21.924C100.937 23.172 101.531 23.796 102.719 23.796C103.907 23.796 105.449 22.992 107.345 21.384C108.809 20.208 110.057 18.96 111.089 17.64C111.305 17.352 111.491 17.208 111.647 17.208C111.803 17.208 111.881 17.28 111.881 17.424C111.881 17.568 111.785 17.772 111.593 18.036C110.297 19.74 108.737 21.252 106.913 22.572C105.089 23.892 103.541 24.552 102.269 24.552ZM109.073 14.184C109.073 13.896 108.767 13.752 108.155 13.752C107.543 13.752 106.673 14.22 105.545 15.156C104.033 16.404 102.857 17.712 102.017 19.08C102.161 19.128 102.317 19.152 102.485 19.152C103.397 19.152 104.615 18.666 106.139 17.694C107.663 16.722 108.617 15.66 109.001 14.508C109.049 14.388 109.073 14.28 109.073 14.184ZM120.671 12.492L125.855 12.42C125.927 12.468 125.963 12.504 125.963 12.528C125.963 12.744 124.469 13.044 121.481 13.428C118.493 13.812 116.879 14.04 116.639 14.112C116.183 14.52 115.343 15.738 114.119 17.766C112.895 19.794 112.283 21.276 112.283 22.212C112.283 23.1 112.895 23.544 114.119 23.544C114.695 23.544 115.451 23.364 116.387 23.004C117.323 22.644 118.043 22.308 118.547 21.996C119.891 21.156 121.331 19.92 122.867 18.288C123.203 17.952 123.431 17.784 123.551 17.784C123.623 17.784 123.659 17.856 123.659 18C123.659 18.144 123.479 18.432 123.119 18.864C121.871 20.4 120.467 21.636 118.907 22.572C117.035 23.724 115.247 24.3 113.543 24.3C112.799 24.3 112.193 24.138 111.725 23.814C111.257 23.49 111.023 22.836 111.023 21.852C111.023 20.868 111.455 19.518 112.319 17.802C113.183 16.086 113.843 14.808 114.299 13.968C113.963 14.04 113.675 14.076 113.435 14.076C112.739 14.076 112.391 13.8 112.391 13.248C112.391 12.84 112.679 12.552 113.255 12.384C113.327 12.384 113.435 12.372 113.579 12.348H115.667C116.099 11.796 116.591 11.16 117.143 10.44C117.815 9.576 118.271 9.144 118.511 9.144C118.751 9.144 119.051 9.24 119.411 9.432C119.771 9.624 119.951 9.852 119.951 10.116C119.951 10.38 119.375 11.16 118.223 12.456C118.847 12.48 119.663 12.492 120.671 12.492Z" fill="white"/>
<path d="M35.056 13.788L38.548 13.716C39.412 13.716 39.844 13.776 39.844 13.896C39.844 14.208 38.092 14.484 34.588 14.724C32.356 19.092 31.24 22.068 31.24 23.652C31.24 24.756 31.588 25.308 32.284 25.308C32.548 25.308 32.878 25.146 33.274 24.822C33.67 24.498 33.91 24.336 33.994 24.336C34.078 24.336 34.12 24.396 34.12 24.516C34 24.948 33.634 25.308 33.022 25.596C32.41 25.884 31.894 26.028 31.474 26.028C31.054 26.028 30.724 26.004 30.484 25.956C29.908 25.74 29.62 25.044 29.62 23.868C29.62 21.444 30.544 18.36 32.392 14.616L28.072 14.724C24.856 17.868 21.628 20.628 18.388 23.004C13.54 26.532 9.74801 28.296 7.01201 28.296C6.84401 28.296 6.67601 28.284 6.50801 28.26C2.81201 27.948 0.964005 26.052 0.964005 22.572C0.964005 20.508 1.61201 18.324 2.90801 16.02C4.63601 12.948 7.00001 10.326 10 8.154C13 5.982 15.688 4.896 18.064 4.896C20.44 4.896 21.628 5.772 21.628 7.524C21.628 8.7 21.268 10.008 20.548 11.448C19.828 12.888 19.096 13.8 18.352 14.184C18.28 14.208 18.202 14.22 18.118 14.22C18.034 14.22 17.992 14.196 17.992 14.148L19.18 12.204C19.996 10.932 20.404 9.816 20.404 8.856C20.404 7.896 20.194 7.122 19.774 6.534C19.354 5.946 18.688 5.652 17.776 5.652C15.904 5.652 13.666 6.696 11.062 8.784C8.45801 10.872 6.47801 13.44 5.12201 16.488C3.76601 19.536 3.08801 21.912 3.08801 23.616C3.08801 26.184 4.39601 27.468 7.01201 27.468C9.50801 27.468 12.892 25.86 17.164 22.644C19.06 21.228 22.144 18.552 26.416 14.616C25.576 14.664 24.796 14.748 24.076 14.868C22.54 15.156 21.82 15.108 21.916 14.724C22.012 13.836 22.468 13.392 23.284 13.392C24.868 13.584 26.2 13.68 27.28 13.68C29.344 11.784 32.428 8.676 36.532 4.356C39.292 1.452 40.972 0 41.572 0C41.836 0 41.968 0.204 41.968 0.612C41.968 1.02 41.86 1.656 41.644 2.52C41.428 3.384 41.188 3.912 40.924 4.104C40.372 4.488 39.856 5.01 39.376 5.67C38.896 6.33 38.212 7.566 37.324 9.378C36.436 11.19 35.68 12.66 35.056 13.788ZM37.936 5.004L28.72 13.644H30.844C31.348 13.668 31.972 13.68 32.716 13.68C33.412 12.312 35.152 9.42 37.936 5.004ZM45.1061 12.708C45.7541 12.708 46.0781 12.96 46.0781 13.464C46.0781 13.608 46.0421 13.752 45.9701 13.896C43.8101 16.896 42.5141 19.164 42.0821 20.7C47.6741 15.108 51.0701 12.312 52.2701 12.312C52.3901 12.288 52.4981 12.276 52.5941 12.276C53.2661 12.276 53.6021 12.576 53.6021 13.176C53.6021 13.296 53.5781 13.416 53.5301 13.536C53.4821 13.656 53.0021 14.304 52.0901 15.48C51.0341 16.728 50.1401 17.928 49.4081 19.08C48.6761 20.232 48.3101 21.192 48.3101 21.96C48.3101 22.728 48.4781 23.112 48.8141 23.112C49.8701 23.112 51.7061 21.66 54.3221 18.756C54.3701 18.708 54.4541 18.6 54.5741 18.432C54.9341 18 55.1501 17.784 55.2221 17.784C55.2941 17.784 55.3301 17.904 55.3301 18.144C55.3301 18.384 55.1621 18.696 54.8261 19.08C51.8501 22.464 49.7381 24.156 48.4901 24.156C47.3141 24.156 46.7261 23.508 46.7261 22.212C46.7261 20.916 47.2061 19.428 48.1661 17.748L50.4701 14.004C48.8381 15.204 47.3861 16.518 46.1141 17.946C44.8421 19.374 43.6841 20.76 42.6401 22.104C41.5961 23.448 40.9901 24.12 40.8221 24.12C40.4621 24.12 40.1801 23.97 39.9761 23.67C39.7721 23.37 39.6701 22.998 39.6701 22.554C39.6701 22.11 39.8261 21.516 40.1381 20.772C40.4501 20.028 40.8461 19.128 41.3261 18.072L39.1661 20.34C38.6381 20.868 38.3081 21.132 38.1761 21.132C38.0441 21.132 37.9781 21.054 37.9781 20.898C37.9781 20.742 38.0741 20.568 38.2661 20.376C39.1541 19.488 39.9221 18.636 40.5701 17.82C41.1941 17.004 42.4781 15.444 44.4221 13.14C44.6381 12.852 44.8661 12.708 45.1061 12.708ZM64.2462 9.738C64.5702 9.966 64.7322 10.236 64.7322 10.548C64.7322 10.86 64.5822 11.13 64.2822 11.358C63.9822 11.586 63.6522 11.7 63.2922 11.7C62.9322 11.7 62.6022 11.568 62.3022 11.304C62.0022 11.04 61.8522 10.74 61.8522 10.404C61.8522 9.732 62.3082 9.396 63.2202 9.396C63.5802 9.396 63.9222 9.51 64.2462 9.738ZM56.7042 24.48C55.4802 24.48 54.8682 23.688 54.8682 22.104C54.8682 20.808 55.5762 19.014 56.9922 16.722C58.4082 14.43 59.5482 13.272 60.4122 13.248C60.6522 13.248 60.9222 13.344 61.2222 13.536C61.5222 13.728 61.6722 13.92 61.6722 14.112C61.5522 14.28 61.4082 14.466 61.2402 14.67C61.0722 14.874 60.8922 15.096 60.7002 15.336C60.5082 15.576 60.2442 15.918 59.9082 16.362C59.5722 16.806 59.2482 17.232 58.9362 17.64C57.1362 19.968 56.2362 21.57 56.2362 22.446C56.2362 23.322 56.5362 23.76 57.1362 23.76C57.6402 23.76 58.3242 23.484 59.1882 22.932C61.2042 21.684 62.8002 20.316 63.9762 18.828C64.4082 18.276 64.7022 18 64.8582 18C65.0142 18 65.0922 18.096 65.0922 18.288C65.0922 18.48 64.8162 18.864 64.2642 19.44C63.7122 20.016 63.2742 20.472 62.9502 20.808C62.6262 21.144 62.4042 21.366 62.2842 21.474C62.1642 21.582 61.9422 21.786 61.6182 22.086C61.2942 22.386 61.0482 22.596 60.8802 22.716C60.7122 22.836 60.4722 23.016 60.1602 23.256C59.8482 23.496 59.5722 23.67 59.3322 23.778C59.0922 23.886 58.8162 24.012 58.5042 24.156C58.0002 24.372 57.4002 24.48 56.7042 24.48ZM66.9704 24.552C66.7064 24.552 66.4664 24.516 66.2504 24.444C64.7144 24.012 63.9464 23.148 63.9464 21.852C63.9464 20.172 65.0024 18.228 67.1144 16.02C69.2264 13.812 71.1224 12.708 72.8024 12.708C73.3544 12.708 73.8044 12.858 74.1524 13.158C74.5004 13.458 74.6744 13.824 74.6744 14.256C74.6744 15.6 73.6604 16.884 71.6324 18.108C69.6044 19.332 67.9544 19.944 66.6824 19.944C66.4904 19.944 66.3224 19.92 66.1784 19.872C65.8184 20.52 65.6384 21.204 65.6384 21.924C65.6384 23.172 66.2324 23.796 67.4204 23.796C68.6084 23.796 70.1504 22.992 72.0464 21.384C73.5104 20.208 74.7584 18.96 75.7904 17.64C76.0064 17.352 76.1924 17.208 76.3484 17.208C76.5044 17.208 76.5824 17.28 76.5824 17.424C76.5824 17.568 76.4864 17.772 76.2944 18.036C74.9984 19.74 73.4384 21.252 71.6144 22.572C69.7904 23.892 68.2424 24.552 66.9704 24.552ZM73.7744 14.184C73.7744 13.896 73.4684 13.752 72.8564 13.752C72.2444 13.752 71.3744 14.22 70.2464 15.156C68.7344 16.404 67.5584 17.712 66.7184 19.08C66.8624 19.128 67.0184 19.152 67.1864 19.152C68.0984 19.152 69.3164 18.666 70.8404 17.694C72.3644 16.722 73.3184 15.66 73.7024 14.508C73.7504 14.388 73.7744 14.28 73.7744 14.184ZM84.1845 15.12C84.1845 13.488 84.6885 12.672 85.6965 12.672C85.7925 12.672 85.9005 12.684 86.0205 12.708C86.4285 12.78 86.6325 13.092 86.6325 13.644C86.6325 14.196 86.5365 14.892 86.3445 15.732C86.1525 16.356 86.0205 16.824 85.9485 17.136C86.0205 17.544 86.2185 18.066 86.5425 18.702C86.8665 19.338 87.3105 19.656 87.8745 19.656C88.4385 19.656 89.0685 19.272 89.7645 18.504C89.9085 18.336 90.0465 18.252 90.1785 18.252C90.3105 18.252 90.3825 18.33 90.3945 18.486C90.4065 18.642 90.3165 18.852 90.1245 19.116C89.3805 20.004 88.6005 20.448 87.7845 20.448C86.6085 20.448 85.6605 19.584 84.9405 17.856C84.1965 19.56 83.1405 21.03 81.7725 22.266C80.4045 23.502 79.0485 24.12 77.7045 24.12C76.4325 24.12 75.7965 23.16 75.7965 21.24C75.7965 19.728 77.2065 16.944 80.0265 12.888C82.8465 8.832 85.0005 6.804 86.4885 6.804C86.8005 6.804 87.0825 6.9 87.3345 7.092C87.5865 7.284 87.7125 7.512 87.7125 7.776C87.7125 7.752 87.5385 7.932 87.1905 8.316C86.8425 8.7 85.8945 9.732 84.3465 11.412C82.7985 13.092 81.2805 14.94 79.7925 16.956C78.3045 18.972 77.5605 20.532 77.5605 21.636C77.5605 21.924 77.6385 22.236 77.7945 22.572C77.9505 22.908 78.2085 23.076 78.5685 23.076C79.6245 23.076 80.8605 22.26 82.2765 20.628C83.4525 19.188 84.1725 17.976 84.4365 16.992C84.2685 16.488 84.1845 15.864 84.1845 15.12ZM99.5446 9.738C99.8686 9.966 100.031 10.236 100.031 10.548C100.031 10.86 99.8806 11.13 99.5806 11.358C99.2806 11.586 98.9506 11.7 98.5906 11.7C98.2306 11.7 97.9006 11.568 97.6006 11.304C97.3006 11.04 97.1506 10.74 97.1506 10.404C97.1506 9.732 97.6066 9.396 98.5186 9.396C98.8786 9.396 99.2206 9.51 99.5446 9.738ZM92.0026 24.48C90.7786 24.48 90.1666 23.688 90.1666 22.104C90.1666 20.808 90.8746 19.014 92.2906 16.722C93.7066 14.43 94.8466 13.272 95.7106 13.248C95.9506 13.248 96.2206 13.344 96.5206 13.536C96.8206 13.728 96.9706 13.92 96.9706 14.112C96.8506 14.28 96.7066 14.466 96.5386 14.67C96.3706 14.874 96.1906 15.096 95.9986 15.336C95.8066 15.576 95.5426 15.918 95.2066 16.362C94.8706 16.806 94.5466 17.232 94.2346 17.64C92.4346 19.968 91.5346 21.57 91.5346 22.446C91.5346 23.322 91.8346 23.76 92.4346 23.76C92.9386 23.76 93.6226 23.484 94.4866 22.932C96.5026 21.684 98.0986 20.316 99.2746 18.828C99.7066 18.276 100.001 18 100.157 18C100.313 18 100.391 18.096 100.391 18.288C100.391 18.48 100.115 18.864 99.5626 19.44C99.0106 20.016 98.5726 20.472 98.2486 20.808C97.9246 21.144 97.7026 21.366 97.5826 21.474C97.4626 21.582 97.2406 21.786 96.9166 22.086C96.5926 22.386 96.3466 22.596 96.1786 22.716C96.0106 22.836 95.7706 23.016 95.4586 23.256C95.1466 23.496 94.8706 23.67 94.6306 23.778C94.3906 23.886 94.1146 24.012 93.8026 24.156C93.2986 24.372 92.6986 24.48 92.0026 24.48ZM102.269 24.552C102.005 24.552 101.765 24.516 101.549 24.444C100.013 24.012 99.2447 23.148 99.2447 21.852C99.2447 20.172 100.301 18.228 102.413 16.02C104.525 13.812 106.421 12.708 108.101 12.708C108.653 12.708 109.103 12.858 109.451 13.158C109.799 13.458 109.973 13.824 109.973 14.256C109.973 15.6 108.959 16.884 106.931 18.108C104.903 19.332 103.253 19.944 101.981 19.944C101.789 19.944 101.621 19.92 101.477 19.872C101.117 20.52 100.937 21.204 100.937 21.924C100.937 23.172 101.531 23.796 102.719 23.796C103.907 23.796 105.449 22.992 107.345 21.384C108.809 20.208 110.057 18.96 111.089 17.64C111.305 17.352 111.491 17.208 111.647 17.208C111.803 17.208 111.881 17.28 111.881 17.424C111.881 17.568 111.785 17.772 111.593 18.036C110.297 19.74 108.737 21.252 106.913 22.572C105.089 23.892 103.541 24.552 102.269 24.552ZM109.073 14.184C109.073 13.896 108.767 13.752 108.155 13.752C107.543 13.752 106.673 14.22 105.545 15.156C104.033 16.404 102.857 17.712 102.017 19.08C102.161 19.128 102.317 19.152 102.485 19.152C103.397 19.152 104.615 18.666 106.139 17.694C107.663 16.722 108.617 15.66 109.001 14.508C109.049 14.388 109.073 14.28 109.073 14.184ZM120.671 12.492L125.855 12.42C125.927 12.468 125.963 12.504 125.963 12.528C125.963 12.744 124.469 13.044 121.481 13.428C118.493 13.812 116.879 14.04 116.639 14.112C116.183 14.52 115.343 15.738 114.119 17.766C112.895 19.794 112.283 21.276 112.283 22.212C112.283 23.1 112.895 23.544 114.119 23.544C114.695 23.544 115.451 23.364 116.387 23.004C117.323 22.644 118.043 22.308 118.547 21.996C119.891 21.156 121.331 19.92 122.867 18.288C123.203 17.952 123.431 17.784 123.551 17.784C123.623 17.784 123.659 17.856 123.659 18C123.659 18.144 123.479 18.432 123.119 18.864C121.871 20.4 120.467 21.636 118.907 22.572C117.035 23.724 115.247 24.3 113.543 24.3C112.799 24.3 112.193 24.138 111.725 23.814C111.257 23.49 111.023 22.836 111.023 21.852C111.023 20.868 111.455 19.518 112.319 17.802C113.183 16.086 113.843 14.808 114.299 13.968C113.963 14.04 113.675 14.076 113.435 14.076C112.739 14.076 112.391 13.8 112.391 13.248C112.391 12.84 112.679 12.552 113.255 12.384C113.327 12.384 113.435 12.372 113.579 12.348H115.667C116.099 11.796 116.591 11.16 117.143 10.44C117.815 9.576 118.271 9.144 118.511 9.144C118.751 9.144 119.051 9.24 119.411 9.432C119.771 9.624 119.951 9.852 119.951 10.116C119.951 10.38 119.375 11.16 118.223 12.456C118.847 12.48 119.663 12.492 120.671 12.492Z" stroke="white" stroke-width="2"/>
</g>
</g>
<g filter="url(#filter1_i_1_20)">
<mask id="mask1_1_20" style="mask-type:alpha" maskUnits="userSpaceOnUse" x="137" y="0" width="79" height="27">
<path d="M155.419 9.252C157.771 9.252 158.947 9.696 158.947 10.584C158.947 10.776 158.875 10.992 158.731 11.232C158.155 12.12 157.111 12.564 155.599 12.564C154.615 12.564 153.607 12.39 152.575 12.042C151.543 11.694 150.763 11.328 150.235 10.944C148.003 11.592 146.017 12.588 144.277 13.932C142.537 15.276 141.235 16.8 140.371 18.504C139.915 19.416 139.687 20.304 139.687 21.168C139.687 22.512 140.245 23.604 141.361 24.444C142.477 25.284 144.115 25.704 146.275 25.704C146.875 25.704 147.499 25.668 148.147 25.596C151.963 25.188 154.999 23.964 157.255 21.924C159.151 20.244 160.099 18.48 160.099 16.632C160.099 15.168 159.391 14.436 157.975 14.436C156.271 14.436 154.315 15.348 152.107 17.172C151.555 17.628 151.087 18.204 150.703 18.9C150.319 19.596 150.127 20.28 150.127 20.952C150.127 21.624 150.463 22.044 151.135 22.212C151.375 22.308 151.495 22.428 151.495 22.572C151.495 22.812 151.255 22.908 150.775 22.86C149.623 22.836 149.047 22.08 149.047 20.592C149.047 19.104 149.803 17.712 151.315 16.416C153.379 14.64 155.563 13.752 157.867 13.752C159.595 13.752 160.687 14.292 161.143 15.372C161.335 15.876 161.431 16.38 161.431 16.884C161.431 19.116 160.195 21.216 157.723 23.184C154.771 25.584 151.027 26.784 146.491 26.784C143.683 26.784 141.463 26.262 139.831 25.218C138.199 24.174 137.383 22.812 137.383 21.132C137.383 20.148 137.695 19.164 138.319 18.18C140.527 14.676 144.295 12.072 149.623 10.368C148.831 9.456 148.435 8.484 148.435 7.452C148.435 6.42 148.687 5.556 149.191 4.86C150.175 3.516 151.651 2.412 153.619 1.548C155.971 0.516 158.323 0 160.675 0C162.043 0 163.141 0.222 163.969 0.666C164.797 1.11 165.211 1.794 165.211 2.718C165.211 3.642 164.869 4.422 164.185 5.058C163.501 5.694 162.787 6.012 162.043 6.012C161.299 6.012 160.927 5.832 160.927 5.472C160.927 5.256 161.083 5.148 161.395 5.148L162.115 5.256C162.595 5.256 163.033 4.998 163.429 4.482C163.825 3.966 164.023 3.432 164.023 2.88C164.023 2.064 163.555 1.464 162.619 1.08C162.019 0.840002 161.455 0.720001 160.927 0.720001C160.399 0.720001 160.027 0.732001 159.811 0.756001C157.747 0.876001 155.731 1.596 153.763 2.916C151.459 4.428 150.307 6.132 150.307 8.028C150.307 8.724 150.547 9.372 151.027 9.972C152.563 9.492 154.027 9.252 155.419 9.252ZM151.639 10.548C152.671 11.364 153.859 11.772 155.203 11.772C156.547 11.772 157.219 11.4 157.219 10.656C157.219 10.32 156.619 10.152 155.419 10.152C154.219 10.152 152.959 10.284 151.639 10.548ZM171.949 14.94C171.949 13.308 172.453 12.492 173.461 12.492C173.557 12.492 173.665 12.504 173.785 12.528C174.193 12.6 174.397 12.912 174.397 13.464C174.397 14.016 174.301 14.712 174.109 15.552C173.917 16.176 173.785 16.644 173.713 16.956C173.785 17.364 173.983 17.886 174.307 18.522C174.631 19.158 175.075 19.476 175.639 19.476C176.203 19.476 176.833 19.092 177.529 18.324C177.673 18.156 177.811 18.072 177.943 18.072C178.075 18.072 178.147 18.15 178.159 18.306C178.171 18.462 178.081 18.672 177.889 18.936C177.145 19.824 176.365 20.268 175.549 20.268C174.373 20.268 173.425 19.404 172.705 17.676C171.961 19.38 170.905 20.85 169.537 22.086C168.169 23.322 166.813 23.94 165.469 23.94C164.197 23.94 163.561 22.98 163.561 21.06C163.561 19.548 164.971 16.764 167.791 12.708C170.611 8.652 172.765 6.624 174.253 6.624C174.565 6.624 174.847 6.72 175.099 6.912C175.351 7.104 175.477 7.332 175.477 7.596C175.477 7.572 175.303 7.752 174.955 8.136C174.607 8.52 173.659 9.552 172.111 11.232C170.563 12.912 169.045 14.76 167.557 16.776C166.069 18.792 165.325 20.352 165.325 21.456C165.325 21.744 165.403 22.056 165.559 22.392C165.715 22.728 165.973 22.896 166.333 22.896C167.389 22.896 168.625 22.08 170.041 20.448C171.217 19.008 171.937 17.796 172.201 16.812C172.033 16.308 171.949 15.684 171.949 14.94ZM180.307 24.372C180.043 24.372 179.803 24.336 179.587 24.264C178.051 23.832 177.283 22.968 177.283 21.672C177.283 19.992 178.339 18.048 180.451 15.84C182.563 13.632 184.459 12.528 186.139 12.528C186.691 12.528 187.141 12.678 187.489 12.978C187.837 13.278 188.011 13.644 188.011 14.076C188.011 15.42 186.997 16.704 184.969 17.928C182.941 19.152 181.291 19.764 180.019 19.764C179.827 19.764 179.659 19.74 179.515 19.692C179.155 20.34 178.975 21.024 178.975 21.744C178.975 22.992 179.569 23.616 180.757 23.616C181.945 23.616 183.487 22.812 185.383 21.204C186.847 20.028 188.095 18.78 189.127 17.46C189.343 17.172 189.529 17.028 189.685 17.028C189.841 17.028 189.919 17.1 189.919 17.244C189.919 17.388 189.823 17.592 189.631 17.856C188.335 19.56 186.775 21.072 184.951 22.392C183.127 23.712 181.579 24.372 180.307 24.372ZM187.111 14.004C187.111 13.716 186.805 13.572 186.193 13.572C185.581 13.572 184.711 14.04 183.583 14.976C182.071 16.224 180.895 17.532 180.055 18.9C180.199 18.948 180.355 18.972 180.523 18.972C181.435 18.972 182.653 18.486 184.177 17.514C185.701 16.542 186.655 15.48 187.039 14.328C187.087 14.208 187.111 14.1 187.111 14.004ZM197.521 14.94C197.521 13.308 198.025 12.492 199.033 12.492C199.129 12.492 199.237 12.504 199.357 12.528C199.765 12.6 199.969 12.912 199.969 13.464C199.969 14.016 199.873 14.712 199.681 15.552C199.489 16.176 199.357 16.644 199.285 16.956C199.357 17.364 199.555 17.886 199.879 18.522C200.203 19.158 200.647 19.476 201.211 19.476C201.775 19.476 202.405 19.092 203.101 18.324C203.245 18.156 203.383 18.072 203.515 18.072C203.647 18.072 203.719 18.15 203.731 18.306C203.743 18.462 203.653 18.672 203.461 18.936C202.717 19.824 201.937 20.268 201.121 20.268C199.945 20.268 198.997 19.404 198.277 17.676C197.533 19.38 196.477 20.85 195.109 22.086C193.741 23.322 192.385 23.94 191.041 23.94C189.769 23.94 189.133 22.98 189.133 21.06C189.133 19.548 190.543 16.764 193.363 12.708C196.183 8.652 198.337 6.624 199.825 6.624C200.137 6.624 200.419 6.72 200.671 6.912C200.923 7.104 201.049 7.332 201.049 7.596C201.049 7.572 200.875 7.752 200.527 8.136C200.179 8.52 199.231 9.552 197.683 11.232C196.135 12.912 194.617 14.76 193.129 16.776C191.641 18.792 190.897 20.352 190.897 21.456C190.897 21.744 190.975 22.056 191.131 22.392C191.287 22.728 191.545 22.896 191.905 22.896C192.961 22.896 194.197 22.08 195.613 20.448C196.789 19.008 197.509 17.796 197.773 16.812C197.605 16.308 197.521 15.684 197.521 14.94ZM205.88 24.372C205.616 24.372 205.376 24.336 205.16 24.264C203.624 23.832 202.856 22.968 202.856 21.672C202.856 19.992 203.912 18.048 206.024 15.84C208.136 13.632 210.032 12.528 211.712 12.528C212.264 12.528 212.714 12.678 213.062 12.978C213.41 13.278 213.584 13.644 213.584 14.076C213.584 15.42 212.57 16.704 210.542 17.928C208.514 19.152 206.864 19.764 205.592 19.764C205.4 19.764 205.232 19.74 205.088 19.692C204.728 20.34 204.548 21.024 204.548 21.744C204.548 22.992 205.142 23.616 206.33 23.616C207.518 23.616 209.06 22.812 210.956 21.204C212.42 20.028 213.668 18.78 214.7 17.46C214.916 17.172 215.102 17.028 215.258 17.028C215.414 17.028 215.492 17.1 215.492 17.244C215.492 17.388 215.396 17.592 215.204 17.856C213.908 19.56 212.348 21.072 210.524 22.392C208.7 23.712 207.152 24.372 205.88 24.372ZM212.684 14.004C212.684 13.716 212.378 13.572 211.766 13.572C211.154 13.572 210.284 14.04 209.156 14.976C207.644 16.224 206.468 17.532 205.628 18.9C205.772 18.948 205.928 18.972 206.096 18.972C207.008 18.972 208.226 18.486 209.75 17.514C211.274 16.542 212.228 15.48 212.612 14.328C212.66 14.208 212.684 14.1 212.684 14.004Z" fill="white"/>
</mask>
<g mask="url(#mask1_1_20)">
<path d="M155.419 9.252C157.771 9.252 158.947 9.696 158.947 10.584C158.947 10.776 158.875 10.992 158.731 11.232C158.155 12.12 157.111 12.564 155.599 12.564C154.615 12.564 153.607 12.39 152.575 12.042C151.543 11.694 150.763 11.328 150.235 10.944C148.003 11.592 146.017 12.588 144.277 13.932C142.537 15.276 141.235 16.8 140.371 18.504C139.915 19.416 139.687 20.304 139.687 21.168C139.687 22.512 140.245 23.604 141.361 24.444C142.477 25.284 144.115 25.704 146.275 25.704C146.875 25.704 147.499 25.668 148.147 25.596C151.963 25.188 154.999 23.964 157.255 21.924C159.151 20.244 160.099 18.48 160.099 16.632C160.099 15.168 159.391 14.436 157.975 14.436C156.271 14.436 154.315 15.348 152.107 17.172C151.555 17.628 151.087 18.204 150.703 18.9C150.319 19.596 150.127 20.28 150.127 20.952C150.127 21.624 150.463 22.044 151.135 22.212C151.375 22.308 151.495 22.428 151.495 22.572C151.495 22.812 151.255 22.908 150.775 22.86C149.623 22.836 149.047 22.08 149.047 20.592C149.047 19.104 149.803 17.712 151.315 16.416C153.379 14.64 155.563 13.752 157.867 13.752C159.595 13.752 160.687 14.292 161.143 15.372C161.335 15.876 161.431 16.38 161.431 16.884C161.431 19.116 160.195 21.216 157.723 23.184C154.771 25.584 151.027 26.784 146.491 26.784C143.683 26.784 141.463 26.262 139.831 25.218C138.199 24.174 137.383 22.812 137.383 21.132C137.383 20.148 137.695 19.164 138.319 18.18C140.527 14.676 144.295 12.072 149.623 10.368C148.831 9.456 148.435 8.484 148.435 7.452C148.435 6.42 148.687 5.556 149.191 4.86C150.175 3.516 151.651 2.412 153.619 1.548C155.971 0.516 158.323 0 160.675 0C162.043 0 163.141 0.222 163.969 0.666C164.797 1.11 165.211 1.794 165.211 2.718C165.211 3.642 164.869 4.422 164.185 5.058C163.501 5.694 162.787 6.012 162.043 6.012C161.299 6.012 160.927 5.832 160.927 5.472C160.927 5.256 161.083 5.148 161.395 5.148L162.115 5.256C162.595 5.256 163.033 4.998 163.429 4.482C163.825 3.966 164.023 3.432 164.023 2.88C164.023 2.064 163.555 1.464 162.619 1.08C162.019 0.840002 161.455 0.720001 160.927 0.720001C160.399 0.720001 160.027 0.732001 159.811 0.756001C157.747 0.876001 155.731 1.596 153.763 2.916C151.459 4.428 150.307 6.132 150.307 8.028C150.307 8.724 150.547 9.372 151.027 9.972C152.563 9.492 154.027 9.252 155.419 9.252ZM151.639 10.548C152.671 11.364 153.859 11.772 155.203 11.772C156.547 11.772 157.219 11.4 157.219 10.656C157.219 10.32 156.619 10.152 155.419 10.152C154.219 10.152 152.959 10.284 151.639 10.548ZM171.949 14.94C171.949 13.308 172.453 12.492 173.461 12.492C173.557 12.492 173.665 12.504 173.785 12.528C174.193 12.6 174.397 12.912 174.397 13.464C174.397 14.016 174.301 14.712 174.109 15.552C173.917 16.176 173.785 16.644 173.713 16.956C173.785 17.364 173.983 17.886 174.307 18.522C174.631 19.158 175.075 19.476 175.639 19.476C176.203 19.476 176.833 19.092 177.529 18.324C177.673 18.156 177.811 18.072 177.943 18.072C178.075 18.072 178.147 18.15 178.159 18.306C178.171 18.462 178.081 18.672 177.889 18.936C177.145 19.824 176.365 20.268 175.549 20.268C174.373 20.268 173.425 19.404 172.705 17.676C171.961 19.38 170.905 20.85 169.537 22.086C168.169 23.322 166.813 23.94 165.469 23.94C164.197 23.94 163.561 22.98 163.561 21.06C163.561 19.548 164.971 16.764 167.791 12.708C170.611 8.652 172.765 6.624 174.253 6.624C174.565 6.624 174.847 6.72 175.099 6.912C175.351 7.104 175.477 7.332 175.477 7.596C175.477 7.572 175.303 7.752 174.955 8.136C174.607 8.52 173.659 9.552 172.111 11.232C170.563 12.912 169.045 14.76 167.557 16.776C166.069 18.792 165.325 20.352 165.325 21.456C165.325 21.744 165.403 22.056 165.559 22.392C165.715 22.728 165.973 22.896 166.333 22.896C167.389 22.896 168.625 22.08 170.041 20.448C171.217 19.008 171.937 17.796 172.201 16.812C172.033 16.308 171.949 15.684 171.949 14.94ZM180.307 24.372C180.043 24.372 179.803 24.336 179.587 24.264C178.051 23.832 177.283 22.968 177.283 21.672C177.283 19.992 178.339 18.048 180.451 15.84C182.563 13.632 184.459 12.528 186.139 12.528C186.691 12.528 187.141 12.678 187.489 12.978C187.837 13.278 188.011 13.644 188.011 14.076C188.011 15.42 186.997 16.704 184.969 17.928C182.941 19.152 181.291 19.764 180.019 19.764C179.827 19.764 179.659 19.74 179.515 19.692C179.155 20.34 178.975 21.024 178.975 21.744C178.975 22.992 179.569 23.616 180.757 23.616C181.945 23.616 183.487 22.812 185.383 21.204C186.847 20.028 188.095 18.78 189.127 17.46C189.343 17.172 189.529 17.028 189.685 17.028C189.841 17.028 189.919 17.1 189.919 17.244C189.919 17.388 189.823 17.592 189.631 17.856C188.335 19.56 186.775 21.072 184.951 22.392C183.127 23.712 181.579 24.372 180.307 24.372ZM187.111 14.004C187.111 13.716 186.805 13.572 186.193 13.572C185.581 13.572 184.711 14.04 183.583 14.976C182.071 16.224 180.895 17.532 180.055 18.9C180.199 18.948 180.355 18.972 180.523 18.972C181.435 18.972 182.653 18.486 184.177 17.514C185.701 16.542 186.655 15.48 187.039 14.328C187.087 14.208 187.111 14.1 187.111 14.004ZM197.521 14.94C197.521 13.308 198.025 12.492 199.033 12.492C199.129 12.492 199.237 12.504 199.357 12.528C199.765 12.6 199.969 12.912 199.969 13.464C199.969 14.016 199.873 14.712 199.681 15.552C199.489 16.176 199.357 16.644 199.285 16.956C199.357 17.364 199.555 17.886 199.879 18.522C200.203 19.158 200.647 19.476 201.211 19.476C201.775 19.476 202.405 19.092 203.101 18.324C203.245 18.156 203.383 18.072 203.515 18.072C203.647 18.072 203.719 18.15 203.731 18.306C203.743 18.462 203.653 18.672 203.461 18.936C202.717 19.824 201.937 20.268 201.121 20.268C199.945 20.268 198.997 19.404 198.277 17.676C197.533 19.38 196.477 20.85 195.109 22.086C193.741 23.322 192.385 23.94 191.041 23.94C189.769 23.94 189.133 22.98 189.133 21.06C189.133 19.548 190.543 16.764 193.363 12.708C196.183 8.652 198.337 6.624 199.825 6.624C200.137 6.624 200.419 6.72 200.671 6.912C200.923 7.104 201.049 7.332 201.049 7.596C201.049 7.572 200.875 7.752 200.527 8.136C200.179 8.52 199.231 9.552 197.683 11.232C196.135 12.912 194.617 14.76 193.129 16.776C191.641 18.792 190.897 20.352 190.897 21.456C190.897 21.744 190.975 22.056 191.131 22.392C191.287 22.728 191.545 22.896 191.905 22.896C192.961 22.896 194.197 22.08 195.613 20.448C196.789 19.008 197.509 17.796 197.773 16.812C197.605 16.308 197.521 15.684 197.521 14.94ZM205.88 24.372C205.616 24.372 205.376 24.336 205.16 24.264C203.624 23.832 202.856 22.968 202.856 21.672C202.856 19.992 203.912 18.048 206.024 15.84C208.136 13.632 210.032 12.528 211.712 12.528C212.264 12.528 212.714 12.678 213.062 12.978C213.41 13.278 213.584 13.644 213.584 14.076C213.584 15.42 212.57 16.704 210.542 17.928C208.514 19.152 206.864 19.764 205.592 19.764C205.4 19.764 205.232 19.74 205.088 19.692C204.728 20.34 204.548 21.024 204.548 21.744C204.548 22.992 205.142 23.616 206.33 23.616C207.518 23.616 209.06 22.812 210.956 21.204C212.42 20.028 213.668 18.78 214.7 17.46C214.916 17.172 215.102 17.028 215.258 17.028C215.414 17.028 215.492 17.1 215.492 17.244C215.492 17.388 215.396 17.592 215.204 17.856C213.908 19.56 212.348 21.072 210.524 22.392C208.7 23.712 207.152 24.372 205.88 24.372ZM212.684 14.004C212.684 13.716 212.378 13.572 211.766 13.572C211.154 13.572 210.284 14.04 209.156 14.976C207.644 16.224 206.468 17.532 205.628 18.9C205.772 18.948 205.928 18.972 206.096 18.972C207.008 18.972 208.226 18.486 209.75 17.514C211.274 16.542 212.228 15.48 212.612 14.328C212.66 14.208 212.684 14.1 212.684 14.004Z" fill="white"/>
<path d="M155.419 9.252C157.771 9.252 158.947 9.696 158.947 10.584C158.947 10.776 158.875 10.992 158.731 11.232C158.155 12.12 157.111 12.564 155.599 12.564C154.615 12.564 153.607 12.39 152.575 12.042C151.543 11.694 150.763 11.328 150.235 10.944C148.003 11.592 146.017 12.588 144.277 13.932C142.537 15.276 141.235 16.8 140.371 18.504C139.915 19.416 139.687 20.304 139.687 21.168C139.687 22.512 140.245 23.604 141.361 24.444C142.477 25.284 144.115 25.704 146.275 25.704C146.875 25.704 147.499 25.668 148.147 25.596C151.963 25.188 154.999 23.964 157.255 21.924C159.151 20.244 160.099 18.48 160.099 16.632C160.099 15.168 159.391 14.436 157.975 14.436C156.271 14.436 154.315 15.348 152.107 17.172C151.555 17.628 151.087 18.204 150.703 18.9C150.319 19.596 150.127 20.28 150.127 20.952C150.127 21.624 150.463 22.044 151.135 22.212C151.375 22.308 151.495 22.428 151.495 22.572C151.495 22.812 151.255 22.908 150.775 22.86C149.623 22.836 149.047 22.08 149.047 20.592C149.047 19.104 149.803 17.712 151.315 16.416C153.379 14.64 155.563 13.752 157.867 13.752C159.595 13.752 160.687 14.292 161.143 15.372C161.335 15.876 161.431 16.38 161.431 16.884C161.431 19.116 160.195 21.216 157.723 23.184C154.771 25.584 151.027 26.784 146.491 26.784C143.683 26.784 141.463 26.262 139.831 25.218C138.199 24.174 137.383 22.812 137.383 21.132C137.383 20.148 137.695 19.164 138.319 18.18C140.527 14.676 144.295 12.072 149.623 10.368C148.831 9.456 148.435 8.484 148.435 7.452C148.435 6.42 148.687 5.556 149.191 4.86C150.175 3.516 151.651 2.412 153.619 1.548C155.971 0.516 158.323 0 160.675 0C162.043 0 163.141 0.222 163.969 0.666C164.797 1.11 165.211 1.794 165.211 2.718C165.211 3.642 164.869 4.422 164.185 5.058C163.501 5.694 162.787 6.012 162.043 6.012C161.299 6.012 160.927 5.832 160.927 5.472C160.927 5.256 161.083 5.148 161.395 5.148L162.115 5.256C162.595 5.256 163.033 4.998 163.429 4.482C163.825 3.966 164.023 3.432 164.023 2.88C164.023 2.064 163.555 1.464 162.619 1.08C162.019 0.840002 161.455 0.720001 160.927 0.720001C160.399 0.720001 160.027 0.732001 159.811 0.756001C157.747 0.876001 155.731 1.596 153.763 2.916C151.459 4.428 150.307 6.132 150.307 8.028C150.307 8.724 150.547 9.372 151.027 9.972C152.563 9.492 154.027 9.252 155.419 9.252ZM151.639 10.548C152.671 11.364 153.859 11.772 155.203 11.772C156.547 11.772 157.219 11.4 157.219 10.656C157.219 10.32 156.619 10.152 155.419 10.152C154.219 10.152 152.959 10.284 151.639 10.548ZM171.949 14.94C171.949 13.308 172.453 12.492 173.461 12.492C173.557 12.492 173.665 12.504 173.785 12.528C174.193 12.6 174.397 12.912 174.397 13.464C174.397 14.016 174.301 14.712 174.109 15.552C173.917 16.176 173.785 16.644 173.713 16.956C173.785 17.364 173.983 17.886 174.307 18.522C174.631 19.158 175.075 19.476 175.639 19.476C176.203 19.476 176.833 19.092 177.529 18.324C177.673 18.156 177.811 18.072 177.943 18.072C178.075 18.072 178.147 18.15 178.159 18.306C178.171 18.462 178.081 18.672 177.889 18.936C177.145 19.824 176.365 20.268 175.549 20.268C174.373 20.268 173.425 19.404 172.705 17.676C171.961 19.38 170.905 20.85 169.537 22.086C168.169 23.322 166.813 23.94 165.469 23.94C164.197 23.94 163.561 22.98 163.561 21.06C163.561 19.548 164.971 16.764 167.791 12.708C170.611 8.652 172.765 6.624 174.253 6.624C174.565 6.624 174.847 6.72 175.099 6.912C175.351 7.104 175.477 7.332 175.477 7.596C175.477 7.572 175.303 7.752 174.955 8.136C174.607 8.52 173.659 9.552 172.111 11.232C170.563 12.912 169.045 14.76 167.557 16.776C166.069 18.792 165.325 20.352 165.325 21.456C165.325 21.744 165.403 22.056 165.559 22.392C165.715 22.728 165.973 22.896 166.333 22.896C167.389 22.896 168.625 22.08 170.041 20.448C171.217 19.008 171.937 17.796 172.201 16.812C172.033 16.308 171.949 15.684 171.949 14.94ZM180.307 24.372C180.043 24.372 179.803 24.336 179.587 24.264C178.051 23.832 177.283 22.968 177.283 21.672C177.283 19.992 178.339 18.048 180.451 15.84C182.563 13.632 184.459 12.528 186.139 12.528C186.691 12.528 187.141 12.678 187.489 12.978C187.837 13.278 188.011 13.644 188.011 14.076C188.011 15.42 186.997 16.704 184.969 17.928C182.941 19.152 181.291 19.764 180.019 19.764C179.827 19.764 179.659 19.74 179.515 19.692C179.155 20.34 178.975 21.024 178.975 21.744C178.975 22.992 179.569 23.616 180.757 23.616C181.945 23.616 183.487 22.812 185.383 21.204C186.847 20.028 188.095 18.78 189.127 17.46C189.343 17.172 189.529 17.028 189.685 17.028C189.841 17.028 189.919 17.1 189.919 17.244C189.919 17.388 189.823 17.592 189.631 17.856C188.335 19.56 186.775 21.072 184.951 22.392C183.127 23.712 181.579 24.372 180.307 24.372ZM187.111 14.004C187.111 13.716 186.805 13.572 186.193 13.572C185.581 13.572 184.711 14.04 183.583 14.976C182.071 16.224 180.895 17.532 180.055 18.9C180.199 18.948 180.355 18.972 180.523 18.972C181.435 18.972 182.653 18.486 184.177 17.514C185.701 16.542 186.655 15.48 187.039 14.328C187.087 14.208 187.111 14.1 187.111 14.004ZM197.521 14.94C197.521 13.308 198.025 12.492 199.033 12.492C199.129 12.492 199.237 12.504 199.357 12.528C199.765 12.6 199.969 12.912 199.969 13.464C199.969 14.016 199.873 14.712 199.681 15.552C199.489 16.176 199.357 16.644 199.285 16.956C199.357 17.364 199.555 17.886 199.879 18.522C200.203 19.158 200.647 19.476 201.211 19.476C201.775 19.476 202.405 19.092 203.101 18.324C203.245 18.156 203.383 18.072 203.515 18.072C203.647 18.072 203.719 18.15 203.731 18.306C203.743 18.462 203.653 18.672 203.461 18.936C202.717 19.824 201.937 20.268 201.121 20.268C199.945 20.268 198.997 19.404 198.277 17.676C197.533 19.38 196.477 20.85 195.109 22.086C193.741 23.322 192.385 23.94 191.041 23.94C189.769 23.94 189.133 22.98 189.133 21.06C189.133 19.548 190.543 16.764 193.363 12.708C196.183 8.652 198.337 6.624 199.825 6.624C200.137 6.624 200.419 6.72 200.671 6.912C200.923 7.104 201.049 7.332 201.049 7.596C201.049 7.572 200.875 7.752 200.527 8.136C200.179 8.52 199.231 9.552 197.683 11.232C196.135 12.912 194.617 14.76 193.129 16.776C191.641 18.792 190.897 20.352 190.897 21.456C190.897 21.744 190.975 22.056 191.131 22.392C191.287 22.728 191.545 22.896 191.905 22.896C192.961 22.896 194.197 22.08 195.613 20.448C196.789 19.008 197.509 17.796 197.773 16.812C197.605 16.308 197.521 15.684 197.521 14.94ZM205.88 24.372C205.616 24.372 205.376 24.336 205.16 24.264C203.624 23.832 202.856 22.968 202.856 21.672C202.856 19.992 203.912 18.048 206.024 15.84C208.136 13.632 210.032 12.528 211.712 12.528C212.264 12.528 212.714 12.678 213.062 12.978C213.41 13.278 213.584 13.644 213.584 14.076C213.584 15.42 212.57 16.704 210.542 17.928C208.514 19.152 206.864 19.764 205.592 19.764C205.4 19.764 205.232 19.74 205.088 19.692C204.728 20.34 204.548 21.024 204.548 21.744C204.548 22.992 205.142 23.616 206.33 23.616C207.518 23.616 209.06 22.812 210.956 21.204C212.42 20.028 213.668 18.78 214.7 17.46C214.916 17.172 215.102 17.028 215.258 17.028C215.414 17.028 215.492 17.1 215.492 17.244C215.492 17.388 215.396 17.592 215.204 17.856C213.908 19.56 212.348 21.072 210.524 22.392C208.7 23.712 207.152 24.372 205.88 24.372ZM212.684 14.004C212.684 13.716 212.378 13.572 211.766 13.572C211.154 13.572 210.284 14.04 209.156 14.976C207.644 16.224 206.468 17.532 205.628 18.9C205.772 18.948 205.928 18.972 206.096 18.972C207.008 18.972 208.226 18.486 209.75 17.514C211.274 16.542 212.228 15.48 212.612 14.328C212.66 14.208 212.684 14.1 212.684 14.004Z" stroke="white" stroke-width="2"/>
</g>
</g>
<defs>
<filter id="filter0_i_1_20" x="0.964005" y="0" width="124.999" height="32.296" filterUnits="userSpaceOnUse" color-interpolation-filters="sRGB">
<feFlood flood-opacity="0" result="BackgroundImageFix"/>
<feBlend mode="normal" in="SourceGraphic" in2="BackgroundImageFix" result="shape"/>
<feColorMatrix in="SourceAlpha" type="matrix" values="0 0 0 0 0 0 0 0 0 0 0 0 0 0 0 0 0 0 127 0" result="hardAlpha"/>
<feOffset dy="4"/>
<feGaussianBlur stdDeviation="2"/>
<feComposite in2="hardAlpha" operator="arithmetic" k2="-1" k3="1"/>
<feColorMatrix type="matrix" values="0 0 0 0 0 0 0 0 0 0 0 0 0 0 0 0 0 0 0.25 0"/>
<feBlend mode="normal" in2="shape" result="effect1_innerShadow_1_20"/>
</filter>
<filter id="filter1_i_1_20" x="137.383" y="0" width="78.109" height="30.784" filterUnits="userSpaceOnUse" color-interpolation-filters="sRGB">
<feFlood flood-opacity="0" result="BackgroundImageFix"/>
<feBlend mode="normal" in="SourceGraphic" in2="BackgroundImageFix" result="shape"/>
<feColorMatrix in="SourceAlpha" type="matrix" values="0 0 0 0 0 0 0 0 0 0 0 0 0 0 0 0 0 0 127 0" result="hardAlpha"/>
<feOffset dy="4"/>
<feGaussianBlur stdDeviation="2"/>
<feComposite in2="hardAlpha" operator="arithmetic" k2="-1" k3="1"/>
<feColorMatrix type="matrix" values="0 0 0 0 0 0 0 0 0 0 0 0 0 0 0 0 0 0 0.25 0"/>
<feBlend mode="normal" in2="shape" result="effect1_innerShadow_1_20"/>
</filter>
</defs>
</svg>
